#!OML:ASF F:\VICON\USERDATA\INSTALL\rory3\rory3.ASF
:FULLY-SPECIFIED
:DEGREES
2492
root -0.372035 14.3387 -2.02436 -5.63154 -7.09892 0.698083
lowerback 34.1378 1.8972 -13.875
upperback 12.7835 -2.64849 -7.79665
thorax -2.76642 -1.53203 -0.182125
lowerneck -11.427 2.13951 -5.34137
upperneck -16.0519 5.51203 19.7548
head -3.43426 2.49637 7.19404
rclavicle -3.18055e-015 6.36111e-015
rhumerus -23.9355 -55.0608 -1.58675
rradius 120.826
rwrist 16.8102
rhand -44.0809 23.5179
rfingers 7.12502
rthumb -16.899 -5.76686
lclavicle -3.18055e-015 6.36111e-015
lhumerus -17.458 -41.6545 43.3738
lradius 52.3094
lwrist 30.7037
lhand -6.84551 14.8608
lfingers 7.12502
lthumb 19.0194 43.9509
rfemur -29.7597 12.4373 19.0553
rtibia 63.3131
rfoot -22.8235 -10.9359
rtoes -22.0781
lfemur -24.6923 7.46747 -12.2909
ltibia 58.6996
lfoot -20.9087 -6.47777
ltoes -15.3002
2493
root -0.352634 14.373 -2.01645 -5.71769 -6.75928 0.77011
lowerback 33.9366 2.07299 -13.4848
upperback 13.0545 -2.19852 -7.37615
thorax -2.44033 -1.34052 -0.075133
lowerneck -11.3062 2.15659 -5.19396
upperneck -16.2576 5.51689 19.3057
head -3.51064 2.48953 7.01545
rclavicle 5.56597e-014 -6.36111e-015
rhumerus -22.6509 -54.8313 -4.11384
rradius 121.096
rwrist 19.4946
rhand -44.3466 24.755
rfingers 7.12502
rthumb -17.1548 -4.50774
lclavicle 5.56597e-014 -6.36111e-015
lhumerus -16.8689 -42.5731 42.3546
lradius 53.7264
lwrist 30.5114
lhand -6.52085 15.0966
lfingers 7.12502
lthumb 19.3316 44.1557
rfemur -29.2161 12.0767 18.8549
rtibia 62.7283
rfoot -22.5978 -10.6312
rtoes -21.6494
lfemur -24.3305 6.78787 -12.5774
ltibia 58.071
lfoot -20.7494 -6.09647
ltoes -15.5288
2494
root -0.333817 14.4132 -2.00694 -5.75536 -6.39919 0.673386
lowerback 33.6645 2.16747 -12.9503
upperback 13.2743 -1.8007 -6.90869
thorax -2.15335 -1.16604 0.0299034
lowerneck -11.0633 2.21539 -5.05269
upperneck -16.3753 5.55863 18.7984
head -3.58464 2.50175 6.81408
rclavicle 1.43125e-014 -2.70347e-014
rhumerus -21.2231 -54.4142 -6.79109
rradius 121.391
rwrist 22.0269
rhand -44.4241 25.331
rfingers 7.12502
rthumb -17.2294 -3.92522
lclavicle 1.43125e-014 -2.70347e-014
lhumerus -16.3374 -43.5136 41.3045
lradius 55.0531
lwrist 30.596
lhand -6.29308 15.2315
lfingers 7.12502
lthumb 19.5506 44.2685
rfemur -28.7084 11.7153 18.8292
rtibia 62.073
rfoot -22.4616 -10.4232
rtoes -21.2422
lfemur -23.9821 6.1245 -12.6793
ltibia 57.4486
lfoot -20.5754 -5.76015
ltoes -15.6399
2495
root -0.316117 14.4515 -1.99591 -5.79619 -6.0352 0.456428
lowerback 33.4254 2.23509 -12.3294
upperback 13.4481 -1.42319 -6.3529
thorax -1.931 -0.99526 0.19134
lowerneck -10.8588 2.25759 -5.11012
upperneck -16.3674 5.58168 18.3646
head -3.61556 2.52293 6.6723
rclavicle -4.13472e-014 -3.02153e-014
rhumerus -19.8222 -53.8823 -9.37558
rradius 121.711
rwrist 24.3252
rhand -44.4068 25.6779
rfingers 7.12502
rthumb -17.2128 -3.57976
lclavicle -4.13472e-014 -3.02153e-014
lhumerus -15.9141 -44.33 40.385
lradius 56.2779
lwrist 30.5978
lhand -6.08186 15.0631
lfingers 7.12502
lthumb 19.7537 44.0794
rfemur -28.1998 11.3289 18.9451
rtibia 61.3215
rfoot -22.3111 -10.4891
rtoes -21.8528
lfemur -23.6062 5.47883 -12.6369
ltibia 56.8145
lfoot -20.4079 -5.42556
ltoes -16.0227
2496
root -0.299592 14.4893 -1.98269 -5.88672 -5.61093 0.319648
lowerback 33.2726 2.3117 -11.7595
upperback 13.5701 -1.0754 -5.79321
thorax -1.79066 -0.833064 0.389388
lowerneck -10.5473 2.29168 -5.15152
upperneck -16.3939 5.58551 17.8512
head -3.67052 2.52963 6.49984
rclavicle 1.43125e-014 2.06736e-014
rhumerus -18.7151 -53.3863 -11.6555
rradius 121.95
rwrist 26.37
rhand -44.2711 26.8832
rfingers 7.12502
rthumb -17.0821 -2.38578
lclavicle 1.43125e-014 2.06736e-014
lhumerus -15.7169 -45.0775 39.5408
lradius 57.6295
lwrist 30.4554
lhand -5.82535 14.9369
lfingers 7.12502
lthumb 20.0002 43.9276
rfemur -27.6028 10.8995 18.9831
rtibia 60.5524
rfoot -22.0524 -10.5161
rtoes -22.1758
lfemur -23.1815 4.71231 -12.687
ltibia 56.1237
lfoot -20.201 -5.11956
ltoes -15.8961
